<?xml version="1.0" encoding="UTF-8"?>
<svg id="Laag_1" data-name="Laag 1" xmlns="http://www.w3.org/2000/svg" version="1.1" xmlns:xlink="http://www.w3.org/1999/xlink" viewBox="0 0 411 539">
  <defs>
    <style>
      .cls-1 {
        fill: #e66920;
      }

      .cls-1, .cls-2, .cls-3, .cls-4, .cls-5, .cls-6, .cls-7, .cls-8, .cls-9, .cls-10, .cls-11, .cls-12, .cls-13, .cls-14, .cls-15, .cls-16, .cls-17, .cls-18 {
        stroke-width: 0px;
      }

      .cls-2 {
        fill: #df5a25;
      }

      .cls-3 {
        fill: #f6b020;
      }

      .cls-4 {
        fill: #c63718;
      }

      .cls-5 {
        fill: #f68720;
      }

      .cls-6 {
        fill: #84341e;
      }

      .cls-7 {
        fill: #db8629;
      }

      .cls-8 {
        fill: #f7eac9;
      }

      .cls-9 {
        fill: #5a1800;
      }

      .cls-10 {
        fill: #d54920;
      }

      .cls-11 {
        fill: #f3d23f;
      }

      .cls-12 {
        fill: #d3cdbf;
      }

      .cls-13 {
        fill: url(#Naamloos_verloop_4);
      }

      .cls-14 {
        fill: #f5be1e;
      }

      .cls-15 {
        fill: #63341a;
      }

      .cls-16 {
        fill: #f9a020;
      }

      .cls-17 {
        fill: #f2e21b;
      }

      .cls-18 {
        fill: #f4f0e4;
      }
    </style>
    <linearGradient id="Naamloos_verloop_4" data-name="Naamloos verloop 4" x1="-15.91" y1="2584.41" x2="25.94" y2="2543.02" gradientTransform="translate(319.17 1449) scale(.5 -.5)" gradientUnits="userSpaceOnUse">
      <stop offset="0" stop-color="#f1dc21"/>
      <stop offset="1" stop-color="#f6b525"/>
    </linearGradient>
  </defs>
  <path class="cls-12" d="M338.13,135.58c-2.03,1.1-6.97,4.46-8.08,6.38l-.8-.3c.47-.81,1.15-2.41,1.6-3.39.29.5-.64,2.84-.25,2.79,1.83-2.06,4.14-3.67,6.48-5.09.09-.06.94-.51,1.05-.4h0Z"/>
  <g>
    <path class="cls-2" d="M359.48,166.1c1.18.55.88,1.11.1,1.89-2.03,2.05-7.45,2.94-10.27,3.29-.03-.04.08-.13-.1-.2-.16-.07-1.36.04-1.79,0-3.46-.31-4.13-1.06-6.88-3.09v-.4c1.83.54,3.84.86,5.74.7.25-.02.89-.39.95-.4.7-.12,1.73.67,2.44.9l-6.14.25c1.14.24,3.31.72,4.34.75,1.37.03,3.31-.85,2.99-.3-1.39.74-2.71.09-2.39.7,1.87.14,3.63-.62,5.44-1,.02,0,.21.21.25.2.57-.12,3.05-.7,2.05-1,1.15-.21-.47-.58-.5-.65.37-1.07,3.61-.07,1.3-1.5.06-1.1,3.61.61.85,1.45-.58.82,2.79-.09,1.65-1.6h0Z"/>
    <path class="cls-1" d="M348.5,162.31c1.23.15,3.28,1.41,4.49,1.89l.2.5c-.96-.42-3.62-1.51-4.39-1.3-.25-.05-1.14-.3-1,.15.07,0,.43.04.45.05,2.55,1.66-.52.16-.9.2-.18.02-.04.57-2.6.3-.23.14,1.04.91,1.75,1.39-.34-.02-.12.16-.1.4-1.61-1.2-2.95-1.37-4.89-1.55,2.43-1.28,4.07-2.41,6.98-2.05h.01Z"/>
    <path class="cls-2" d="M353.19,164.7c.88.39,4.89,1.97,2.34,2.49-1.7.35.03-.23-.5-.6-1.68-.3-5.2-2.97-6.23-3.19.77-.21,3.44.88,4.39,1.3h0Z"/>
    <g>
      <path class="cls-5" d="M348.8,163.41c1.04.22,4.56,2.89,6.23,3.19.53.37-1.2.95.5.6,2.55-.52-1.46-2.1-2.34-2.49l-.2-.5c3.61,1.45,5.9,1.62,6.48,1.89,1.15,1.5-2.22,2.41-1.65,1.6,2.76-.83-.79-2.55-.85-1.45,2.31,1.42-.93.43-1.3,1.5.03.07,1.65.43.5.65-.33.06-3.8.03-4.24-.3-1.72.34,2.12.21,1.94,1.1-1.81.38-3.57,1.14-5.44,1-.31-.61,1,.04,2.39-.7.31-.55-1.62.33-2.99.3-1.03-.02-3.2-.5-4.34-.75l6.14-.25c-.71-.23-1.75-1.02-2.44-.9-.25-.36-.7-1.13-.8-1.5.6.49,1.39.77,2.2.65.2-.25-1.95-1.45-2.1-1.55-.71-.49-1.98-1.26-1.75-1.39,2.55.27,2.42-.28,2.6-.3.38-.04,3.45,1.45.9-.2-.02-.01-.38-.05-.45-.05-.14-.45.75-.2,1-.15h-.01Z"/>
      <path class="cls-4" d="M346.51,165.5c.14.1,2.29,1.3,2.1,1.55-.8.12-1.59-.16-2.2-.65-.03-.11.02-.32,0-.5-.02-.24-.24-.42.1-.4Z"/>
      <path class="cls-2" d="M346.66,164.7c2.55-.08,4.06.78,6.14,2.05-1.95-.42-4.82-.65-6.14-2.05Z"/>
      <path class="cls-2" d="M349.55,166.9c1.03-.07,2.03.54,2.89.8.06.02.77-.09,1.05.25-2.26-.2-5.46.55-3.94-1.05h0Z"/>
      <path class="cls-1" d="M356.19,168.4c1,.3-1.47.88-2.05,1-.04,0-.24-.2-.25-.2.18-.88-3.66-.76-1.94-1.1.44.33,3.91.36,4.24.3h0Z"/>
    </g>
  </g>
  <g>
    <path class="cls-2" d="M347.71,176.58c.89.78,5.25,7.42,6.69,9.13.19,1.69-1.68,1.31-2.89,1.34-2.61-.46-6.51-1.41-8.78-2.79-.24-.14-1.31-.98-1.55-1.2-.71-.65-3.58-4.34-3.24-5.09.33-.16,1.21,1.48,1.79,2.15,3.24,3.7,7.05,4.95,11.57,6.38.09.03-.16.2-.05.25.25.11,2.78.27,2.94-.55-.36-1.83-1.88-2.56-2-2.69-1.28-1.58-2.27-3.44-3.59-4.99-.81-.96-2.25-2.04-2.29-2.2-.06-.2.25-.09.2-.3-.02-.1-1.54-.97-1.75-1.05-.58-.23-1.51-.23-1.45-.5.36.02,1.47.34,1.84.5.16.07,2.43,1.5,2.54,1.6h.01Z"/>
    <path class="cls-2" d="M344.02,176.98c-.2.15-.41.25-.5.5-.3.86,1.02,2.14,1.6,2.69-.32.47.41.73.3,1.3-.36-.19-.74-.3-1.1-.5.16-.99-.91-2.96-1.6-3.74-1.62-1.84-4-1.87-2-2.24,1.37-.25,2.32,1.13,3.29,2Z"/>
    <g>
      <path class="cls-1" d="M343.32,174.48c-.07.27.86.27,1.45.5.21.08,1.72.95,1.75,1.05.05.2-.26.1-.2.3.04.15,1.48,1.24,2.29,2.2,1.32,1.55,2.31,3.41,3.59,4.99.11.14,1.64.86,2,2.69-.16.82-2.69.66-2.94.55-.11-.05.14-.22.05-.25-4.52-1.44-8.33-2.68-11.57-6.38-.59-.67-1.47-2.31-1.79-2.15l.15-.3c3.34.52,4.97,2.56,6.23,3.29.35.2.74.31,1.1.5,4.81,1.83,2.28,1.19-.3-1.3-.58-.55-1.9-1.83-1.6-2.69,1.34,1.5,2.34,2.44,4.14,3.39.07-.03-.04-.42-.05-.45-.12-.22-3.13-3.04-3.59-3.44-.97-.86-1.92-2.25-3.29-2,.73-.37,1.78-.55,2.6-.5h0Z"/>
      <g>
        <path class="cls-4" d="M343.17,175.08c3.2,1.56,6.56,4.59,6.88,8.28-.47.02-.14-.23-.15-.25-2.01-2.89-.77-2.34-5.24-6.54-.2-.19-1.84-1.28-1.5-1.5Z"/>
        <path class="cls-2" d="M338.98,178.27c2.59,2.07,4.65,2.45,6.73,5.54-1.05-.32-6.22-4.69-6.54-5.04-.14-.15-.36-.26-.2-.5Z"/>
        <path class="cls-4" d="M343.52,177.48c.09-.25.3-.35.5-.5.46.41,3.47,3.22,3.59,3.44.02.03.12.42.05.45-1.81-.96-2.79-1.89-4.14-3.39Z"/>
        <path class="cls-4" d="M345.56,182.46c2.07.93,3.98,2.08,5.93,3.24-1.19-.19-2.6-.66-3.64-1.25-.2-.12-2.6-1.83-2.29-2Z"/>
        <path class="cls-2" d="M350.75,182.56c2.71,3.27,2.26,5.09-.15.35l.15-.35Z"/>
        <path class="cls-4" d="M345.41,181.47c.12-.57-.63-.83-.3-1.3,2.59,2.49,5.1,3.13.3,1.3Z"/>
      </g>
    </g>
  </g>
  <g>
    <path class="cls-2" d="M321.17,194.33c-.55.49.19,2.5-.95,4.19-1.11-1.77.67-3.69-.35-4.29-.96-.18-.96,1.02-1.89.9.4-1.06,1.71-1.78,1.05-2.49-.12,0-.63,1.28-.75.95-.1-1.52,1.53-4.93,1.05-5.04-1.1,2.79-2.55,6.66-2.44,9.68l-.2.35-.3-2.34c.01-.3-.01-.6,0-.9.39-1.37.3-2.78.8-4.14.47-1.27,1.83-2.82,2.65-3.94.57,1.47-.49,6.86,1.34,7.08Z"/>
    <path class="cls-2" d="M325.96,194.03c-.31,1.93-2.53,4.65-3.09,6.14-.47,1.23-.71,4.05-1.3,4.84-2.37,3.22-5.37-4.63-5.19-8.78l.3,2.34.2-.35c.07,2.08,1.05,5.96,2.94,7.18,1.76-.18,1.59-1.34,1.65-1.45s.21.14.25.05c.26-.61.14-3.11.75-4.74.92-2.45,4.64-5.38,1.6-10.08-.87-.84.2,1.39.3,2,.32,1.91-.29,4.65-.7,4.09.38-2.21-.19-4.38-.1-6.59-.46-.18.07.99-.4.95.32-2.85-.36-2.84.6-1.45.77,1.13,2.01,2.25,2.2,3.69.02.16.02,2.04,0,2.15h0Z"/>
    <g>
      <path class="cls-1" d="M317.98,195.13c-.87,2.32,1.02,6.37,1.65,8.88.63-4.14-2.76-7.45.25-9.78,1.02.6-.76,2.52.35,4.29,1.14-1.69.4-3.7.95-4.19,1.66.2,1.86-3.45,2-4.69.47.04-.06-1.13.4-.95-.09,2.21.48,4.38.1,6.59.41.56,1.03-2.18.7-4.09-.1-.61-1.17-2.83-.3-2,3.04,4.69-.68,7.62-1.6,10.08-.61,1.63-.48,4.13-.75,4.74-.04.09-.19-.16-.25-.05-.06.1.11,1.27-1.65,1.45-1.89-1.22-2.87-5.1-2.94-7.18-.1-3.02,1.34-6.89,2.44-9.68.48.11-1.15,3.52-1.05,5.04.12.33.63-.94.75-.95.66.71-.65,1.43-1.05,2.49h0Z"/>
      <path class="cls-2" d="M319.87,194.23c-3.01,2.33.38,5.64-.25,9.78-.63-2.51-2.51-6.55-1.65-8.88.93.12.93-1.08,1.89-.9h0Z"/>
      <path class="cls-4" d="M322.72,194.13c.54,3.3-1.93,6-2.2,9.18-.85-3.64,1.77-5.68,2.2-9.18Z"/>
    </g>
  </g>
  <g>
    <path class="cls-2" d="M338.63,188.45c.66,1.93-.16,4.11.2,6.23.16.94,1.34,3.46,1.5,4.34.31,1.79-.61,2.06-2.2,1.7-.87-.61-2.41-.9-4.39-3.24-.95-1.12-1.64-2.44-2.29-3.74-.17-.35-.68-1.4-.8-1.7,1.23.93,1.64,2.61,2.49,3.89.89,1.33,1.67,1.98,2.79,3.04.02.02-.25.15-.15.25.19.18,2.23,1.23,2.49,1.3,3.19.75,1.49-2.17.55-5.04-.21-.63-.1-1.67-.8-1.75.07-2.04.52-4.35-.3-5.93.15-1.68-2.3-3.8-4.09-3.89-.18.37,3.89,1.65,4.14,6.43-.77-1.91-1.51-3.51-3.19-4.79l-.15.6c-.3-.78-.94-1.89-1.5-2.54,1.43.13,3.28.85,4.19,2,.74.93.89,2.22,1.5,2.84h0Z"/>
    <path class="cls-2" d="M333.14,195.93c.53.03.39.48,1.2.2,1.29,1.79,3.73,3.52,4.59,3.29.13-.03.17-.18.3-.2l.25.2c-.65-1.28-1.27-2.87-1.55-4.39.02-.43.08-.86.1-1.3.69.08.59,1.12.8,1.75.94,2.87,2.65,5.78-.55,5.04-.27-.06-2.3-1.11-2.49-1.3-.1-.09.17-.23.15-.25-1.13-1.06-1.9-1.71-2.79-3.04h0Z"/>
    <g>
      <path class="cls-1" d="M338.03,193.73c-.02.44-.08.87-.1,1.3,0,.03-.2.61-.2.65-.03,1.09.65,2.76,1.5,3.54-.13.03-.17.16-.3.2-1.74-1.02-2.99-1.87-4.19-3.54-1.02-1.43-3.95-7.01-4.34-8.93-.34,1.16.12,1.22.15,1.34.61,2.51,2.27,5.72,3.79,7.83-.81.27-.66-.16-1.2-.2-.86-1.28-1.26-2.96-2.49-3.89-1.1-2.73-1.32-3.81-.45-6.88.96,1.19,1.82,3.9,3.24,4.29-1.19.61-2.56-3.49-2.6-2.34.91,2.58,2.91,4.56,4.24,6.93.58.05.38-3.63-.2-4.99-.14-.1-.17.4-.65.5,1.09-1.19.69-2.12.2-3.39l.15-.6c1.68,1.27,2.43,2.88,3.19,4.79-.25-4.79-4.32-6.06-4.14-6.43,1.79.09,4.24,2.21,4.09,3.89.81,1.58.37,3.9.3,5.93h0Z"/>
      <path class="cls-2" d="M333.44,189.45c.25.07.54.15.8.1.48-.1.51-.6.65-.5.59,1.36.78,5.04.2,4.99-1.32-2.37-3.34-4.35-4.24-6.93.03-1.15,1.41,2.96,2.6,2.34h0Z"/>
      <path class="cls-2" d="M335.29,187.35c3.33,3.98,1.58,5.39,2.44,9.82-.13.58-2.32-2.2-2.49-2.6.84-.47,1.02.47,1.2-.8.27-1.92-.53-3.98-.5-4.19.03-.2.4-.37.4-.4,0-.11-1.27-1.14-1.05-1.84Z"/>
      <path class="cls-10" d="M338.93,199.42c-.86.23-3.3-1.5-4.59-3.29-1.51-2.11-3.18-5.32-3.79-7.83-.03-.12-.49-.19-.15-1.34.39,1.92,3.32,7.5,4.34,8.93,1.2,1.67,2.45,2.52,4.19,3.54Z"/>
      <path class="cls-2" d="M339.23,199.22c-.85-.78-1.53-2.45-1.5-3.54,0-.04.2-.61.2-.65.27,1.52.9,3.11,1.55,4.39l-.25-.2h0Z"/>
    </g>
  </g>
  <g>
    <path class="cls-1" d="M299.23,183.36c-1.17.78-2.73,1.34-4.09,1.79-2.55.84-5.28,1.63-7.98,1.3-.46-.24-.48-.71-.4-1.2.14.23.08.33.3.7.03.05-.02.26.15.3,1.85.44,6.33-.86,8.28-1.5-.26-.14.22-.58.5-.8,1.02-.81,2.18-1.44,3.19-2.29,1.16-.98,2.2-2.21,3.34-3.19.55-.47,1.31-1.01,1.1-.55-1.13,2.04-2.41,4.12-4.39,5.44h0Z"/>
    <path class="cls-14" d="M301.92,174.78c-2.05.56-3.04,2.06-4.49,3.39.55-1.06,1.51-1.48,2.05-2.49-2.88,1.64-5.63,3.71-7.43,6.54,2.24-.67,3.73-2.51,5.38-4.04-.06.12.16.6-1.1,2.2-2.07,1.73-.33.58,1.1.3.7-.1.05.28-.1.5-2.39.75-2.96.07-3.99,2.6-.13.05-.21.07-.3.1.85-2.21-1.29.12-2.1.4,0-.01-.21.05-.2-.1.38-.52,1.54-3.55,3.09-5.14,1.22-1.25,3.44-2.16,4.89-3.39-.36-.44-1.3.87-1.1-.1-4.59,1.15-5.94,4.15-7.78,8.18-.23.5-.17.96-.2,1-.3.41-2.35-1.08-2.2.6.53.59.89.26,1,.25l.4.4c-.6.09-1.19.2-1.79,0-.23-.36-.16-.47-.3-.7.09-.6.56-.76.9-1.2,1.28,1,1.76-1.51,2.49-2.54-.17-.24-.18-.09-.4.05.73-1.04,1.77-2.88,2.49-3.79.2-.25,1.5-1.82,1.6-1.89.07-.05,1.32-.75,1.45-.8,2.24-.96,4.3-.54,6.64-.3v-.02Z"/>
    <path class="cls-5" d="M302.51,178.47c-1.15.98-2.18,2.21-3.34,3.19-1.01.85-2.17,1.48-3.19,2.29-.28.22-.76.66-.5.8-1.95.63-6.43,1.93-8.28,1.5-.17-.04-.12-.25-.15-.3.6.2,1.19.09,1.79,0,3.21-.5,6.36-2.61,9.08-4.19.42-.24,1.3-.13,3.29-2.54-1.42-.22-1.23.07-1.7.45.19-.63-.01-.3-.4-.4-.02,0-.29-.14-.3-.2,1.27-.13,2.43.26,3.69-.6h0Z"/>
    <path class="cls-1" d="M298.83,179.07c.01.05.28.2.3.2l-.7.45c.56,1.14.51.43,1.1-.05.47-.38.27-.67,1.7-.45-1.99,2.41-2.87,2.3-3.29,2.54-.75-.04.48-.87.4-1.05-1.1-.51-.85-.06-.9-.05-1.43.27-3.17,1.43-1.1-.3.09-.07,1.73-1.27,1.84-1.3.14-.04.44.02.65,0h0Z"/>
    <path class="cls-5" d="M287.65,184.06c.32-.41,1.9-2.37,2.1-2.49.23-.14.23-.29.4-.05-.74,1.04-1.21,3.54-2.49,2.54h0Z"/>
    <path class="cls-5" d="M290.75,184.16c-.54.72-1.38,1.28-2.29,1.39-.11.02-.47.35-1-.25-.16-1.67,1.9-.19,2.2-.6.03-.04-.03-.5.2-1,1.84-4.02,3.19-7.03,7.78-8.18-.2.97.74-.35,1.1.1-1.44,1.23-3.66,2.14-4.89,3.39-1.55,1.59-2.71,4.62-3.09,5.14h0Z"/>
    <path class="cls-1" d="M297.43,178.17c-1.66,1.53-3.14,3.37-5.38,4.04,1.8-2.82,4.56-4.9,7.43-6.54-.54,1.02-1.5,1.43-2.05,2.49h0Z"/>
    <path class="cls-3" d="M297.93,181.76c-2.72,1.58-5.87,3.69-9.08,4.19l-.4-.4c.91-.12,1.76-.68,2.29-1.39-.01.15.2.09.2.1.02.09-.15.14-.1.25.64.32,1.66-.44,2.2-.65.09-.03.17-.05.3-.1,1.6-.64,2.95-1.09,3.99-2.6.15-.22.8-.6.1-.5.05-.01-.2-.46.9.05.08.18-1.15,1-.4,1.05h0Z"/>
    <path class="cls-5" d="M297.33,181.16c-1.04,1.51-2.39,1.95-3.99,2.6,1.03-2.52,1.6-1.84,3.99-2.6Z"/>
    <path class="cls-1" d="M293.04,183.86c-.53.2-1.55.97-2.2.65-.05-.12.12-.16.1-.25.81-.29,2.94-2.61,2.1-.4Z"/>
    <path class="cls-16" d="M299.52,179.67c-.58.48-.54,1.19-1.1.05l.7-.45c.38.1.59-.23.4.4Z"/>
  </g>
  <g>
    <path class="cls-17" d="M299.23,148.64c.13.09,1.95,2.03,2.2,2.29.85,1.22,1.75,2.4,2.39,3.74l-.15.15c-2.41-1.39-3.73-2.52-6.69-2.49-.38.15.58,1.32.75,1.6l-4.34-2.89c-.27-.46-1.11-.76-1.05-.55.97.72,4.97,4.44,5.54,4.64.03.01-.02-.13.65,0,0,.13-.1.09-.1.1,0,.01-.2.08-.2.15.02.16.36.21.4.25,1.67,1.55,1.47,1.65,3.79,1.34-1.13.5-2.6,1.53-3.84,1.45-.24-.02-4.32-1.21-4.54-1.3-2.53-1.06-6.92-8.36-6.98-8.93-.29-2.65,6.33-1.28,7.73-.95.49.12,4.25,1.26,4.44,1.39h0Z"/>
    <g>
      <path class="cls-16" d="M297.73,153.93c.14.24.8,1.09.8,1.2-.67-.13-.62.01-.65,0-.57-.2-4.57-3.92-5.54-4.64-.06-.21.78.09,1.05.55l4.34,2.89Z"/>
      <path class="cls-14" d="M296.03,149.64l-.3.7c-.67-.25-5.29-1.7-5.29-2.24l.15-.15c1.82.53,3.66,1.03,5.44,1.7Z"/>
      <path class="cls-14" d="M295.73,150.34l.3-.7c1.13.42,2.3.79,3.34,1.39,1.08.63,2.27,1.43,1.3,1.3-.17-.02-2.33-1.15-2.99-1.39-.63-.24-1.33-.37-1.94-.6h0Z"/>
      <path class="cls-16" d="M295.29,154.93c.48.09,3.76,2.2,3.54,2.54-.13.2-4.04-1.51-3.54-2.54Z"/>
      <path class="cls-14" d="M288.7,147.74c4.25,2.09,3.04,3.06-.35.15l.35-.15Z"/>
      <path class="cls-14" d="M290.8,151.23c3.5,1.28,2.26,2.33-.15.25l.15-.25Z"/>
      <path class="cls-14" d="M292.39,154.03c.9-.05,1,.31,1.75.65-.04.2-2.43-.46-1.75-.65Z"/>
      <path class="cls-9" d="M298.63,155.63s-.38-.08-.4-.25c0-.07.2-.14.2-.15l.2.4h0Z"/>
    </g>
  </g>
  <g>
    <path class="cls-11" d="M310.6,140.16c.4.93.71,2,.9,2.99-3.02-2.92-1.91-1.6-.55,1.3.24-.42.25-1.22.55-1.2.27,1.55.53,3.17-.05,4.69-1.33-1.9-2.81-3.81-4.74-5.14.23,2.27.87,4.43,1.45,6.64-5.76-2.74-4.52-4.2-5.33-4.89-.62-2.24.05-4.45-.2-6.73-.23-2.1-1.92-5.32-.95-6.04,3.13-.97,7.88,5.91,8.93,8.38h-.01Z"/>
    <g>
      <path class="cls-14" d="M311.49,143.16s0,.07,0,.1c-.3-.02-.31.78-.55,1.2-1.36-2.9-2.48-4.22.55-1.3Z"/>
      <path class="cls-14" d="M306.95,139.36c.65-.54,2.32,5.04,2.54,5.44.04.37-2.52-2.12-2.6-2.29-.09-.22.03-2.55.05-3.14h0Z"/>
      <path class="cls-14" d="M308.9,140.07c-1.33-2.27-3.3-4.11-4.64-6.38,2.23,1.86,3.63,3.64,4.64,6.38Z"/>
      <path class="cls-14" d="M303.27,139.96c1.09,2.34,3.2,4.19,3.49,6.88l-3.04-5.33-.45-1.55Z"/>
      <path class="cls-14" d="M304.86,138.76c2.54,4.74,1.64,8.16.05.55-.01-.05-.41,0-.05-.55Z"/>
      <path class="cls-14" d="M304.06,144.06c.21,0,1.86,2.54,1.89,2.99-1.18-.88-1.94-1.51-1.89-2.99Z"/>
      <path class="cls-11" d="M302.91,133.98c.85,1.42,1.44,4.35,1.05,4.39-.5-.55-.42-2.04-.45-2.15-.16-.66-.57-1.47-.7-1.89-.04-.12.15-.18.1-.35Z"/>
      <path class="cls-11" d="M302.91,133.98c-.06-.1-.57-.57-.45-.8.21.04.37.54.45.8Z"/>
      <path class="cls-14" d="M308.9,140.07c.15.26.46.54.35.9-.21-.17-.27-.7-.35-.9Z"/>
    </g>
  </g>
  <g>
    <path class="cls-11" d="M321.87,127.29c1.32.98,1.57,2.66,2.29,4.04-.24.32.29,1.23.3,1.3,0,.04-.19.19-.1.9.15,1.23.39,2.49.4,3.74-.54-.02-.57-2.06-.8-3.04-.25-1.07-1.38-5.13-2-5.78-.74-.79-.05.72,0,1,.29,1.55,1.47,7.29,1.5,7.78.08,1.66-.65,5.44-.8,7.33-.2.26-.54.89-.8.8.24-1.47.48-2.67.6-4.19.1-1.31.3-3.82.1-5.04-.15-.92-1.32-.89-1.05-5.83-.1.81-.58,1.88-.65,2.65-.12,1.37.2,1.89.2,2,0,1.27-.14,3.37-.1,3.79,0,.08.63.74-.25.15-1.54,2.92-1.6,2.33-.85-1.05.33-1.5,1.27-2.37.35-3.34-1.19,1.87-1.61,4.03-1.84,6.19-.12,1.08,0,2.14-.25,3.19-1.11-1.39-1.81-.89-2.34-1.5-.27-1.11-.12-2.07,0-3.19.47-4.33,1.14-3.38,1.84-4.09,2.45-2.46,1.97-7.15,4.24-7.78h-.02Z"/>
    <path class="cls-7" d="M325.26,138.57c-.55-.25-.31.75-.6,1.94-.43,1.78-1.38,4.12-2.79,5.33-.16-.18-.03-.32,0-.5.26.09.6-.53.8-.8,1.53-2.06,2.11-4.76,2.1-7.28,0-1.25-.25-2.5-.4-3.74-.09-.71.1-.85.1-.9-.01-.07-.54-.98-.3-1.3-.72-1.38-.98-3.06-2.29-4.04,2.93,1.28,3.55,8.29,3.39,11.27h0Z"/>
    <path class="cls-14" d="M321.37,139.76c-2.03,1.51-3.23,3.83-2.1,6.28-.84-.82-2.91-1.31-3.49-3.69.54.61,1.23.1,2.34,1.5.25-1.05.13-2.12.25-3.19l.95,1.1c.24-.55,1.45-1.99,2.05-2h0Z"/>
    <path class="cls-16" d="M322.47,141.16c-.02-.51-.77-1.61-1.1-1.39-.59,0-1.81,1.44-2.05,2l-.95-1.1c.24-2.15.66-4.32,1.84-6.19.92.97-.02,1.84-.35,3.34-.75,3.38-.69,3.96.85,1.05.88.59.26-.08.25-.15-.04-.42.1-2.52.1-3.79,0-.1-.32-.63-.2-2,.07-.76.55-1.84.65-2.65-.27,4.94.9,4.92,1.05,5.83.2,1.22,0,3.73-.1,5.04h.01Z"/>
    <path class="cls-16" d="M324.76,137.27c.02,2.52-.57,5.21-2.1,7.28.15-1.89.88-5.67.8-7.33-.03-.49-1.21-6.23-1.5-7.78-.05-.28-.74-1.79,0-1,.61.65,1.75,4.71,2,5.78.23.99.26,3.02.8,3.04h0Z"/>
  </g>
  <g>
    <path class="cls-16" d="M293.04,166.4c.05,0,.1.06.3.1,1.93.36,1.71.48,1.75,1.6,1.32.05,3.2.37,4.44.3-.77.72-3.3,1.87-4.24,2.1-2.01.49-2.74.18-3.74.2-.48-.29-1.1-.27-1.6-.4-1.44-.36-4.18-1.59-6.04-2.2-.98-.32-2.88-.17-2.65-1.5.34,1.19,1.4.78,2.24,1,1.06.26,2.15.69,2.6.8.37.09.76-.11.8-.1.05.01.63.43.9.5.59.14,3.97.99,4.19,1,.26,0,.65-.16.2-.3-1.5-.24-3.95-1.63-4.49-1.79-1.42-.43-5.53-.52-2.1-.8,4.53-.37,3.87,1.89,8.58,2.79.08.02.02.19.1.2.12.02,1.46-.04,2,0,1.01-.4-.55-.3-1.5-.6-.08-.03-.02-.18-.1-.2-2.21-.7-7.57-2.17-1.39-1.7-.31-.38-1.5-1.15-.25-1h0Z"/>
    <path class="cls-6" d="M291.54,170.69c-.16,0-.31-.04-.3.1-.35-.19-.98-.18-1.3-.5.5.13,1.12.11,1.6.4Z"/>
    <g>
      <path class="cls-11" d="M292.44,162.11c3.04-.11,5.44,1.19,7.18,3.59-.24-.04-1.66-.84-4.64-.5-.97.11-1.05.34-1.34.5-.27.15-1.1.38-.6.7-1.25-.15-.06.61.25,1-6.17-.48-.81,1,1.39,1.7.08.03.02.18.1.2.94.3,2.51.2,1.5.6-.54-.04-1.87.02-2,0-.08-.01-.02-.19-.1-.2-4.71-.9-4.05-3.16-8.58-2.79-3.44.28.68.37,2.1.8.54.16,2.98,1.56,4.49,1.79.46.14.06.3-.2.3-.21,0-3.59-.85-4.19-1-.27-.07-.85-.49-.9-.5-.04-.01-.43.19-.8.1-.44-.11-1.54-.53-2.6-.8-.85-.21-1.9.19-2.24-1,.14-2.03,9.9-4.45,11.17-4.49h0Z"/>
      <path class="cls-16" d="M295.08,163.7c.12,0,1.42.61,1.5.9l-2.39.2c-1.53.76-3.31,1.35-4.99,1.89-4.03-2.2-.1-.91,1.7-1.3.04-.01.29-.33.5-.4.6-.18,3.5-1.3,3.69-1.3h0Z"/>
      <path class="cls-14" d="M285.5,165.5c3.12.19.42.72-1,.8-3.36.19-.47-.4,1-.8Z"/>
      <path class="cls-8" d="M293.64,165.7l-.3.8c-.2-.04-.25-.09-.3-.1-.5-.32.32-.55.6-.7h0Z"/>
    </g>
  </g>
  <g>
    <path class="cls-1" d="M341.32,134.58c.07,1.1-2.32,9.69-2.89,10.77-.01.02-.23-.04-.4.25-2.27,3.86-2.76,2.83-4.79,3.94l-.2-.05c.08-.08.29-.33.3-.35.5.14,1.25-.33,1.7-.6.23-.13.25.07.8-.6.53.38,2.52-3.04,2.6-3.24.02-.05-.19-.45,0-1,.27-.78.54-1.56.8-2.34.59-1.79,1.2-3.7,1.79-5.64-.03-.36.13-1.13-.2-.65.02-.13.11-1.28.1-1.34-.01-.08-.2-.04-.2-.05-.07-.33.35-.69-1.1-.7,1.25-.42,1.63.43,1.7,1.6h0Z"/>
    <path class="cls-16" d="M334.74,145.55c-.13-.57-.43-1.03-.6-1.6,1.43-1.99-.28-1.15-.3-.6-.42-.16-3.06,1.86-3.09,2.05-.07.37,1.1.96-.25,2.15-.1,0-.64-.86-.75-1-.88-1.46-.14-1.91,1.55-3.29.82-.68,1.98-1.23,2.74-2-.01.08.11.89-.3,1.45,0,1.01,1.97-2.82,2.1-3.04.3-.53.72-1.21.7-.65-.91,2.07-1.12,4.39-1.79,6.54h0Z"/>
    <path class="cls-5" d="M335.04,148.55c-.44.27-1.19.74-1.7.6.24-.56.6-1.3.8-1.79.13,1,.96-1.28,1.39-2,.61-1.01,1.41-1.87,1.89-2.94l.2.2-2.6,5.93h.01Z"/>
    <path class="cls-15" d="M334.14,143.96c-.03-.12-.3-.57-.3-.6.02-.55,1.73-1.39.3.6Z"/>
    <path class="cls-11" d="M340.72,133.68s.19-.03.2.05c.01.07-.08,1.21-.1,1.34-.13.86-.82,1.81-1.1,2.65-.4,1.22-.82,3.02-1.2,4.04-.54,1.48-1.82,5.11-2.69,6.19-.55.67-.58.47-.8.6l2.6-5.93-.2-.2c-.49,1.08-1.28,1.93-1.89,2.94-.43-.42.08-1.23.2-1.6.1,0,.14.15.25.1.24-.1,2.65-3.43,2.65-4.44.04-.52-.29,0-.6.35l-.2-.3c.14-.2,2.33-3.43,1.55-3.39-.32.83-1.02,1.42-1.15,1.6.09-.71,1.14-1.86,1.5-2.44.23-.38.53-1.58,1-1.55h-.01Z"/>
    <path class="cls-5" d="M335.74,143.75c.53-1.57,1.15-2.76,2.29-3.99.31-.34.64-.87.6-.35,0,1-2.4,4.34-2.65,4.44-.12.05-.15-.1-.25-.1Z"/>
    <g>
      <path class="cls-11" d="M340.72,133.68c-.47-.03-.76,1.16-1,1.55-.36.58-1.41,1.73-1.5,2.44-.18.26-2.14,3.44-1.75,3.49.35-.64.93-1.12,1.34-1.7l.2.3c-1.14,1.23-1.77,2.42-2.29,3.99-.13.37-.63,1.17-.2,1.6-.43.71-1.27,3-1.39,2,.16-.41.45-1.32.6-1.79.68-2.14.88-4.47,1.79-6.54.03-.57-.4.12-.7.65-.23-.18-1.68,1.02-1.75,1.1-.27.35-.01.25-.05.5-.76.76-1.92,1.32-2.74,2-1.68,1.38-2.43,1.83-1.55,3.29-2.04-2.55-.4-3.68.3-6.38,1.11-1.93,6.06-5.28,8.08-6.38.38-.21,1.16-.68,1.5-.8,1.44,0,1.03.37,1.1.7h0Z"/>
      <path class="cls-16" d="M330.05,143.96c-.07-.56,1.55-2.12,1.89-2.79.72-.27,1.39-1.85,2.6-3.14,1.32-1.42,3.5-2.79,5.04-4.04.51.27.06.1-.5.6-1.96,1.74-5.72,6.26-9.03,9.38Z"/>
      <path class="cls-3" d="M331.94,141.16c-.35.66-1.96,2.23-1.89,2.79-.13.12-.65.91-.8.65-.26-.45,2.5-4.39,3.14-4.84.16.08-.37,1.25-.45,1.39h0Z"/>
    </g>
    <path class="cls-5" d="M337.83,139.47c-.42.58-1,1.05-1.34,1.7-.39-.05,1.56-3.23,1.75-3.49.13-.18.83-.76,1.15-1.6.78-.04-1.41,3.19-1.55,3.39h0Z"/>
    <path class="cls-11" d="M335.83,139.66c-.13.22-2.1,4.06-2.1,3.04.41-.55.29-1.37.3-1.45.04-.25-.23-.15.05-.5.07-.08,1.51-1.28,1.75-1.1h0Z"/>
    <path class="cls-5" d="M335.83,147.95c.87-1.08,2.15-4.71,2.69-6.19l.7-.4c-.26.78-.53,1.56-.8,2.34-.19.55.02.95,0,1-.07.2-2.06,3.62-2.6,3.24Z"/>
    <path class="cls-16" d="M339.23,141.36l-.7.4c.37-1.02.8-2.82,1.2-4.04.27-.83.97-1.79,1.1-2.65.32-.47.16.29.2.65-.59,1.93-1.2,3.84-1.79,5.64h0Z"/>
  </g>
  <g>
    <path class="cls-2" d="M355.19,147.15c.47.85-1.79,3.44-2.69,4.54-1.32,1.6-3.91,4.44-5.69,5.33-.02,0-.09-.22-.35-.1-2.79,1.31-3.74,1.86-7.18.7-.2-.23.66-.38.85-.4-.43.3-.81.41.75.7.72.14,3.61.02,4.09-.4.17-.15.01-.73.15-1,2.71-1.14,4.01-2.8,5.88-4.79,1.22.22,4.28-3.63,3.99-4.54-.08-.25-.19-.04-.2-.05-.09-.12-.23-.22-.2-.4.25.03.49.15.6.4h.01Z"/>
    <path class="cls-5" d="M350.4,147.34l-.15.3c-2.6.32-5.2.64-7.73,1.3.26-.19.68-.32.6-.7,2.43-.19,4.86-.59,7.28-.9Z"/>
    <path class="cls-14" d="M351.6,148.64l.2.2c-1.58.76-3.49,3.47.1,1.5l.1.1c-.32.37-.64.83-.8,1-.65-.12-.75.19-.8.2-.73.24-1.52.41-2.2.8-.18-.12-.28-.29-.3-.3-.65-.26-2.18.15-2.15-1.1h.25c.51-.05,4.06-.94,3.34-1.3-1.53.64-4.34.26-4.14,1.3.1.93.56,1.13,1.5,1.2.03.39-.04.19-.2.3-.48-.2-.48.04-1.1.1-.35-.77-.76-1.16-.55-2.1-1.07.65-.75.82-.95,2.05.5.04.47.15.5.15-.09.4-.16.71-.3,1.1l.05-1c-1.37.26-2.6.95-1.94.2.18-.2,1.92-1.41,1.34-1.5-1.67.77-3.46,1.19-4.94,2.39.03-.05-.2.04.5-1,1.36-.89,2.87-1.44,4.34-2.1.24-.11.11-.37.4-.5,1.62-.74,6.48-1.02,7.73-1.7v.02Z"/>
    <path class="cls-5" d="M349,153.43l.1.15c-.2.6-5.9,2.9-6.83,3.24-.65.24-3.42.97-.7.7.88-.09,2.69-.64,3.54-1-.14.27.02.85-.15,1-.48.41-3.36.53-4.09.4-1.56-.29-1.17-.4-.75-.7,1.06-.75,2.89-1.56,3.69-2.69,1.78-.08,3.46-.74,5.19-1.1h0Z"/>
    <path class="cls-14" d="M347.9,152.13s.12.19.3.3c-.12.07-.54.19-.5.35.28.16.61.21.9.35.15.08.48-.18.4.3-1.73.36-3.41,1.02-5.19,1.1.07-.1.14-.19.2-.3.82-.59,1.66-1.14,2.49-1.7.16-.11.23.09.2-.3.42.03.79-.06,1.2-.1h0Z"/>
    <path class="cls-2" d="M342.22,153.03c-1.07.15-3.73,1.37-4.49,2-.19-.52-.18-.6-.1-1.1.08,1.14.58.67,1,0,1.48-1.21,3.27-1.62,4.94-2.39.57.09-1.17,1.3-1.34,1.5h0Z"/>
    <path class="cls-1" d="M346.51,152.54c-.83.56-1.67,1.11-2.49,1.7.01-.02,0-.14.1-.4.14-.38.21-.7.3-1.1.12.02.7-.07,1-.1.62-.06.61-.3,1.1-.1h0Z"/>
    <path class="cls-5" d="M351.6,148.64c-1.26.68-6.11.96-7.73,1.7-.29.13-.16.39-.4.5-1.47.66-2.98,1.21-4.34,2.1.37-.55.62-1.15,1.15-1.6.45-.38,2.95-1.48,3.59-1.7,1.41-.47,8.24-1.78,8.23-1.34-.2.05-.34.26-.5.35h0Z"/>
    <path class="cls-5" d="M351,151.73c.06-.06.14-.24.2-.3.16-.17.47-.63.8-1,.81-.91,2.49-2.06,2.79-3.29,0,0,.12-.19.2.05.29.91-2.77,4.76-3.99,4.54h0Z"/>
    <path class="cls-5" d="M351.89,150.34c-3.59,1.97-1.67-.74-.1-1.5,1.21-.58.87-.29.1,1.5Z"/>
    <g>
      <path class="cls-14" d="M354.59,146.75c-.03.18.1.28.2.4-.31,1.22-1.99,2.38-2.79,3.29l-.1-.1c.77-1.78,1.11-2.08-.1-1.5l-.2-.2c.15-.08.3-.3.5-.35.01-.44-6.82.88-8.23,1.34-.64.21-3.14,1.32-3.59,1.7-.53.44-.77,1.04-1.15,1.6-.7,1.04-.47.95-.5,1-.42.67-.92,1.14-1,0,.37-2.28,3.21-3.79,4.89-4.99,2.53-.65,5.14-.97,7.73-1.3l.15-.3c.99-.13,3.62-.68,4.19-.6h0Z"/>
      <path class="cls-5" d="M352.84,147.24l1,.1c.85,1.23-1.6.09-1-.1Z"/>
    </g>
    <path class="cls-16" d="M351.2,151.44c-.06.06-.14.24-.2.3-1.88,1.99-3.18,3.65-5.88,4.79-.85.36-2.67.91-3.54,1-2.73.27.05-.46.7-.7.93-.34,6.63-2.63,6.83-3.24l-.1-.15c.08-.48-.25-.23-.4-.3.71.21,2.29-1.19,1.79-1.5.04-.02.15-.32.8-.2h0Z"/>
    <path class="cls-1" d="M346.01,151.04s-.09-.23-.8,0c-.2-1.03,2.61-.66,4.14-1.3.72.36-2.83,1.25-3.34,1.3Z"/>
    <path class="cls-5" d="M350.4,151.64c.49.31-1.09,1.71-1.79,1.5-.29-.14-.61-.19-.9-.35-.04-.16.38-.28.5-.35.68-.39,1.47-.55,2.2-.8Z"/>
    <path class="cls-5" d="M345.41,152.63c-.3.03-.88.12-1,.1-.03,0,0-.11-.5-.15.2-1.22-.12-1.39.95-2.05-.21.93.2,1.33.55,2.1h0Z"/>
    <path class="cls-5" d="M346.01,151.04h-.25c-.03,1.25,1.5.84,2.15,1.1-.41.04-.78.13-1.2.1-.94-.07-1.4-.26-1.5-1.2.7-.23.76,0,.8,0h0Z"/>
  </g>
  <g>
    <path class="cls-4" d="M311.7,192.63c-1.48,3-4.51,5.23-7.38,6.78-.4.21-2.16,1.19-2.39,1.2-.36-.28-.57-.43-.7-.9l.65.6c1.93-.97,3.74-2.61,5.14-4.29.37.16.66-.03.9,0,.02,0,0,.41.35.3.19-.06,2.19-2.09,2.44-2.44,0-.01-.16-.11-.1-.2.03-.04.22.16.7-.7.86-1.55,1.27-3.01,1.3-4.74,0-.03-.07.08-.1-.5s.22-.49.1-1.15c-.05-.3-.53-1.17-.7-1.55l.2-.05c1.44,2.39.77,5.27-.4,7.63h0Z"/>
    <path class="cls-5" d="M307.71,195.13c-.21.3-.46.61-.7.9-1.39,1.68-3.21,3.32-5.14,4.29l-.65-.6c-.23-.79-.02-1.1,0-1.3l.1.75c.08.12.14-.1.3-.15.56-.17.7-.44,1.1-.9l.3.2c-.15.22-.83.85-.25.8,1.83-1.1,3.28-2.47,4.54-4.19l.4.2h-.01Z"/>
    <path class="cls-2" d="M312.49,187.75c-1.55,4.26-1.98,1.44-3.29,2.54-.25,2.39-.55,2.8-1.89,4.64-1.26,1.72-2.71,3.09-4.54,4.19-.58.04.09-.58.25-.8.89-1.26,2.08-2.34,2.99-3.59,1.28-1.76,1.54-2.16,2-4.39.04-.2.14-.38.1-.6.7-.47.47-.92,2.69-1.05.18-1.87-.52-3.26.45-1.94l.65-1.7c.16.37.64,1.25.7,1.55.12.65-.13.57-.1,1.15h0Z"/>
    <path class="cls-16" d="M305.81,194.13c.03.3-.23.39.2.6-.91,1.25-2.1,2.33-2.99,3.59l-.3-.2c.97-1.11,2.46-3.75,2.79-5.24.29-.44.27.97.3,1.25Z"/>
    <path class="cls-16" d="M308,190.34c-.45,2.23-.71,2.63-2,4.39-.43-.21-.18-.3-.2-.6l2-3.94.2.15h0Z"/>
    <g>
      <path class="cls-1" d="M308.1,189.74c.04.22-.06.4-.1.6l-.2-.15-2,3.94c-.02-.27-.02-1.69-.3-1.25-.33,1.49-1.82,4.13-2.79,5.24-.4.46-.54.73-1.1.9.03-.2-.04-.48,0-.65.09-.42,3.35-6.75,4.09-7.48-.47-.53-.83,1.05-1.2.6.57-2.03.58-3.95,1.89-5.69.38-.5,3.56-3.79.35-1.05-3.25,2.77-2.18,7.8-4.39,10.47-.47-.1,1.04-4.45.45-5.33-.38,1.45-.59,3.89-.9,5.09-.02.08-.13.05-.2.05.18-1.19.93-5.59,1.2-6.38.3-.88,1.75-3.44,2.54-3.89.08-.05.55-.02.7-.1.32-.18,2.92-1.78,2.94-.95-.66.5-2.35,4.12-2.1,4.59.02.04.36-.17.4.2.01.12-1.14,2.2-.65,2.24.4-.4.88-.69,1.34-1h.01Z"/>
      <path class="cls-16" d="M301.62,199.02c-.16.05-.23.26-.3.15l-.1-.75c.07-.98.34-2.36.5-3.39.07,0,.18.02.2-.05.3-1.2.51-3.63.9-5.09.6.89-.92,5.24-.45,5.33,2.21-2.67,1.14-7.7,4.39-10.47,3.22-2.74.03.54-.35,1.05-1.31,1.74-1.32,3.66-1.89,5.69.37.45.73-1.13,1.2-.6-.74.74-4,7.06-4.09,7.48-.04.18.03.45,0,.65h0Z"/>
      <path class="cls-16" d="M307.05,186.75c-.25.94,0,1.93-.7,2.6-.44-.78.21-1.93.7-2.6Z"/>
    </g>
    <path class="cls-5" d="M312.59,188.25c-.19,1.06-.57,2.01-1,2.99l-.2-.1c.05-.14.29-.81.15-.9-.37.3-1.56.36-1.75.55-.15.16-.37,1.92-1.79,4.04-.01.02-.13.05-.3.3l-.4-.2c1.34-1.84,1.65-2.24,1.89-4.64,1.31-1.1,1.74,1.71,3.29-2.54.03.57.1.47.1.5h0Z"/>
    <path class="cls-2" d="M307.9,196.03c1.82-1.34,2.79-2.74,3.69-4.79.43-.98.81-1.93,1-2.99-.03,1.72-.44,3.18-1.3,4.74-.48.86-.67.66-.7.7-.06.09.1.19.1.2-.26.35-2.25,2.38-2.44,2.44-.35.11-.32-.3-.35-.3h0Z"/>
    <path class="cls-2" d="M311.59,191.24c-.9,2.05-1.87,3.44-3.69,4.79-.24-.03-.53.16-.9,0,.24-.29.48-.6.7-.9.18-.25.29-.28.3-.3,1.17-.27,2.93-2.58,3.39-3.69l.2.1h0Z"/>
    <path class="cls-2" d="M311.39,191.14c-.47,1.11-2.22,3.41-3.39,3.69,1.42-2.12,1.64-3.88,1.79-4.04.18-.19,1.38-.25,1.75-.55.14.09-.09.76-.15.9h0Z"/>
  </g>
  <g>
    <path class="cls-8" d="M320.77,146.45c4.05.14,8.33,1.55,11.57,3.99,1.16.87,2.24,1.9,3.19,2.99-.5-.08-.99-1.2-1.39-.9-10.2-10.2-28.63-4.96-31.82,9.03-1.32,5.8-.76,10.59,2.39,15.61.3.48.55,1.04.9,1.5-.39.08.36.95.7,1.39-1.3-1.28-2.74-3.52-3.49-5.19-.88-1.95-1.76-4.96-1.89-7.08-.05-.91.03-1.79.1-2.69.02-.25.08-.47.1-.7.38.07.08-.33.15-.4.04-.04.34.07.45-.05.15-.15-.25-.23-.2-.5.02-.13.4-.27.4-.3.1-.38.13-1.45.2-1.7,2.04-7.65,7.83-12.79,15.61-14.12l-.25-.7c.5-.1,1-.07,1.5-.2.6.02,1.2-.02,1.79,0h-.01Z"/>
    <path class="cls-11" d="M335.54,153.43c.6.7,1.3,1.52,1.79,2.29,2.06,3.24,3.31,8.05,3.19,11.87v.4c-.03.42-.38,2.41-.5,2.94-2.17,9.87-10.93,16.32-21,15.61-4.59-.32-9.88-2.77-12.72-6.48-.34-.44-1.09-1.32-.7-1.39,8.67,11.58,25.75,9.68,32.42-2.74,2.3-4.8,2.85-9.82,1.39-14.96-.88-3.12-1.27-2.41-1.39-2.6-.48-.69-.77-1.61-1.5-2.15-.08-.12-.13-.27-.2-.4.86.06-1.56-2.66-2.2-3.29.4-.3.89.81,1.39.9h0Z"/>
    <path class="cls-11" d="M334.14,152.54c.64.64,3.05,3.35,2.2,3.29-2.05-2.39-4.34-4.52-7.18-5.88-1.05-.5-2.52-1.13-3.64-1.39-.05-.01.02.26-.3.2-.1-.02,0-.28-.1-.3-2.34-.44-5.2-.02-7.53.5-4.11.92-8.68,3.73-11.08,7.23-2.7,3.96-3.67,8.05-3.29,12.82.15,1.93.47,2.93,1.1,4.69.3.84.49,1.38.9,2.2-.41.1.52.49-.5,1.3-3.16-5.03-3.72-9.81-2.39-15.61,3.2-13.99,21.62-19.22,31.82-9.03Z"/>
    <path class="cls-14" d="M305.61,178.67c-.34-.46-.6-1.02-.9-1.5,1.02-.8.09-1.2.5-1.3.46.91.91,1.58,1.5,2.39,1.05,1.45,2.25,2.79,3.69,3.89.42.9,4.46,3.02,5.64,3.09,1.98.94,4.45.5,6.98.7.52-.46,1.61-.26,1.79-.3.08-.02.02-.18.1-.2,4.11-.9,8.1-3.2,10.72-6.54,3.79-4.81,4.62-10.16,3.49-16.11-.1-.54-.83-3.23-1-3.64-.52-1.3-1.33-2.08-1.39-2.2-.02-.03-.18-.71-.2-.75.72.54,1.01,1.45,1.5,2.15.13.18.52-.53,1.39,2.6,1.45,5.14.9,10.16-1.39,14.96-6.67,12.43-23.75,14.32-32.42,2.74h0Z"/>
    <path class="cls-18" d="M301.12,164.41c.37-3.53,1.36-6.9,3.39-9.87.37-.31,1.51-2.07,3.04-3.39,2.82-2.43,6.31-3.78,9.93-4.49l.25.7c-7.79,1.33-13.57,6.47-15.61,14.12-.07.25-.09,1.32-.2,1.7,0,.02-.38.17-.4.3-.05.27.35.35.2.5-.11.12-.41.01-.45.05-.07.07.24.46-.15.4h0Z"/>
    <path class="cls-5" d="M329.15,149.94c2.84,1.37,5.14,3.49,7.18,5.88.07.13.12.28.2.4.02.03.18.71.2.75.07.12.87.89,1.39,2.2.16.41.89,3.11,1,3.64-.88-.64-1.55.5-1.6-.1-.24-4.86-4.11-9.42-8.38-11.57.07-.48-.92-.58-1.1-1.15l1.1-.05h0Z"/>
    <path class="cls-14" d="M317.58,148.94l-.9.75c-.14.68,2.07-.68,2.39-.15-.06.01-.14-.01-.2,0-1.04.2-2.33.64-3.34,1-9.25,3.33-12.2,10.82-10.63,20.15-.48-.11-.46-1.85-.65-2.79l-1.05,1.1c-.38-4.77.59-8.86,3.29-12.82,2.39-3.5,6.97-6.32,11.08-7.23Z"/>
    <path class="cls-16" d="M329.15,149.94l-1.1.05c.18.57,1.17.66,1.1,1.15-3.34-1.68-6.34-2.26-10.08-1.6-.32-.53-2.54.83-2.39.15l.9-.75c2.33-.52,5.19-.94,7.53-.5.1.02,0,.28.1.3.31.07.25-.21.3-.2,1.12.27,2.6.89,3.64,1.39h0Z"/>
    <path class="cls-5" d="M305.41,172.99c.47,1.54,1.42,3.5,2.39,4.79-.38.3-1.11.13-1.1.5-.59-.82-1.04-1.49-1.5-2.39-.41-.81-.6-1.36-.9-2.2.21-.96.08-1.1,1.1-.7h0Z"/>
    <path class="cls-16" d="M304.91,170.69c.01.07-.01.14,0,.2.14.75.27,1.37.5,2.1-1.02-.41-.88-.25-1.1.7-.63-1.77-.94-2.76-1.1-4.69l1.05-1.1c.19.94.16,2.68.65,2.79Z"/>
    <path class="cls-2" d="M339.13,162.81c1.13,5.96.3,11.31-3.49,16.11-2.63,3.34-6.61,5.64-10.72,6.54-.08.02-.02.18-.1.2-.19.04-1.28-.16-1.79.3-2.54-.19-5.01.25-6.98-.7-1.18-.07-5.22-2.2-5.64-3.09-.3-.65-.29-1.51.7-1,.78.41.21.79,4.19,2,1.21.37,2.12.64,3.39.8.03,0-.12.05.5.1,1.22.1,2.43-.01,3.64-.1l-.75-.85c1.92-.48.3-.49.05-1.84,1.17-.36,1.41.71,2.15,1.3-1.87-.21.21,1.42.9,1.2.94,0-.36-1.05.8-1.15l-.6-.65c.57.35,1.26,1.18,1.34,1.2.02,0,.04-.13.35-.2.4-.09.93-.32,1.3-.5,1.07-.52.13-.74-.65-.7-.78-.5,2.91-.14,3.04-.65.05-.2-.29-.42-.3-.45-.24-.71.56-.11.6-.7,1.99.33-.09-.68.35-1,.5.07.93.2,1.45,0,.35-.14.72-.82,1-1.1-.42-.72.38.1,1.7-2.05,0-.26-1.13.29-1.39-.5,1.05-.37.87.6,1.79-.55.27-.35.49-.71.7-1.1.18-.32.72-1.67.8-2,.1-.43.05-.78.1-1.2,0-.07,0-.13,0-.2.05-.58.09-1.02.1-1.6v-.5c0-.82.05-1.68,0-2.49-.02-.36.1-.73-.15-.9-2.73,2.13.81-.88,0-1.5-2.14,2.63-1.2.82.05-.6.04.6.71-.54,1.6.1h0Z"/>
    <path class="cls-5" d="M311.1,181.16c-.99-.51-1,.35-.7,1-1.44-1.1-2.64-2.44-3.69-3.89-.02-.37.71-.2,1.1-.5.68.89,1.41,1.59,2.34,2.2.26-.91.23-.26.95,1.2Z"/>
    <path class="cls-13" d="M329.15,151.14c4.27,2.15,8.15,6.72,8.38,11.57-1.25,1.42-2.18,3.23-.05.6.81.62-2.73,3.63,0,1.5.25.17.13.54.15.9-1.43,1.04-2.65,2.09,0,2.49v.5c-.41-.26-.83-.44-1.34-.4-.76,2.01.22,1.07,1.25,2,0,.07,0,.14,0,.2-1.94.23-1.59.21-.9,2.1-.23.62-1.39-1.21-2.24-2-.77.97.49,1.77,1.34,3.04l-1.7.1c.57.19,1.33.82,1.89.55,0,.03.32-.21,0,.5-.92,1.15-.74.18-1.79.55.26.79,1.41.24,1.39.5-1.31,2.14-2.11,1.33-1.7,2.05-1.49.08-1.35-1.31-1.55-1.39-.07-.03-.39.33-1.34.45.62.51,1.14,1.2,1.89,2.05-.52.2-.94.07-1.45,0-.44.32,1.64,1.33-.35,1-.68-.12-1.98-.92-2.99.05.02.13,2.17.8,2.39.65.01.03.35.25.3.45-.14.5-3.83.14-3.04.65.77-.04,1.72.18.65.7l-1.84-.9c-.1.08.15,1.59.55,1.39-.31.07-.33.2-.35.2-.09-.02-.78-.85-1.34-1.2-1.04-.65-.33-.13-.3.7-.18.54-.48.15-.8-.1-.74-.58-.98-1.66-2.15-1.3.25,1.36,1.87,1.37-.05,1.84l.75.85c-1.22.09-2.42.2-3.64.1l1.39-.75c-1.79-.65-2.24-2.96-2-.35-.46-.61-.23.43-1.15.1-.9-.32-.23-2.99-2.15.1-3.98-1.2-3.4-1.59-4.19-2-.71-1.46-.69-2.11-.95-1.2-.94-.61-1.67-1.3-2.34-2.2-.98-1.28-1.92-3.25-2.39-4.79-.23-.72-.36-1.35-.5-2.1.38-8.49,4.35-15.59,11.62-20.05.94-.58,2.12-.92,2.34-1.3.06-.01.14.01.2,0,3.73-.66,6.73-.08,10.08,1.6h.02Z"/>
    <path class="cls-18" d="M304.91,170.89c-.01-.06.01-.14,0-.2-1.57-9.33,1.38-16.82,10.63-20.15,1-.36,2.3-.8,3.34-1-.23.38-1.4.72-2.34,1.3-7.28,4.46-11.24,11.56-11.62,20.05h0Z"/>
    <path class="cls-5" d="M336.64,172.59l.8-.9c-.08.33-.63,1.67-.8,2-.72-.23-.78.02-.7.6-.56.28-1.33-.36-1.89-.55l1.7-.1c-.85-1.27-2.12-2.08-1.34-3.04.85.78,2.01,2.62,2.24,2h0Z"/>
    <path class="cls-16" d="M318.58,182.96c.03.33-.05.66.1,1-1.27-.16-2.18-.43-3.39-.8,1.92-3.09,1.24-.42,2.15-.1.92.33.69-.71,1.15-.1h0Z"/>
    <path class="cls-5" d="M333.84,177.87c-.27.28-.65.96-1,1.1-.76-.85-1.27-1.53-1.89-2.05.96-.12,1.28-.48,1.34-.45.2.09.05,1.48,1.55,1.39h0Z"/>
    <path class="cls-5" d="M337.63,168.19c-2.65-.4-1.43-1.45,0-2.49.05.81,0,1.67,0,2.49Z"/>
    <path class="cls-1" d="M319.18,184.06c-.62-.05-.47-.1-.5-.1-.15-.33-.07-.66-.1-1-.25-2.61.2-.3,2,.35l-1.39.75h0Z"/>
    <path class="cls-5" d="M337.63,168.69c0,.58-.04,1.02-.1,1.6-1.03-.92-2.01.02-1.25-2,.51-.04.93.14,1.34.4Z"/>
    <path class="cls-5" d="M331.05,179.97c-.04.59-.83-.02-.6.7-.23.15-2.38-.52-2.39-.65,1.02-.97,2.32-.16,2.99-.05Z"/>
    <path class="cls-1" d="M337.53,170.49c-.05.41,0,.76-.1,1.2l-.8.9c-.69-1.88-1.04-1.86.9-2.1h0Z"/>
    <path class="cls-5" d="M328.35,182.46c-.37.18-.9.41-1.3.5-.4.19-.65-1.32-.55-1.39l1.84.9h0Z"/>
    <path class="cls-5" d="M324.26,182.56c.32.25.62.64.8.1.02.54-.42.58.1,1.1-.69.22-2.77-1.41-.9-1.2h0Z"/>
    <path class="cls-1" d="M325.36,181.97l.6.65c-1.16.1.14,1.15-.8,1.15-.52-.52-.08-.56-.1-1.1-.03-.83-.74-1.34.3-.7h0Z"/>
    <path class="cls-16" d="M336.64,173.68c-.2.38-.42.75-.7,1.1.32-.71,0-.47,0-.5-.08-.58-.02-.83.7-.6Z"/>
  </g>
</svg>